<?xml version="1.0" encoding="utf-8"?><svg viewBox="0 0 17 15" xmlns="http://www.w3.org/2000/svg" xmlns:xlink="http://www.w3.org/1999/xlink"><style>:root>svg{display:none}:root>svg:target{display:block}</style><svg viewBox="0 0 17 13" id="bad" xmlns="http://www.w3.org/2000/svg"><g opacity=".5"><path d="M15.079 5.118H1.262C.566 5.118 0 5.685 0 6.381v3.372h16.341V6.381c0-.696-.566-1.263-1.262-1.263zM8.65 2.153h4.048v2.008H8.65V2.153z"/><path d="M2.685 1.196h10.971V4.16h1.195V0H1.49v4.161h1.196V1.196z"/><path d="M3.643 2.153h4.049v2.008h-4.05V2.153zM.51 10.711h15.32v1.474H.51v-1.474z"/></g></svg><svg viewBox="0 0 14 15" id="bafroom" xmlns="http://www.w3.org/2000/svg"><path d="M3.316 0c-1.218 0-2.21.992-2.21 2.21v5.711h.736v-5.71c0-.823.651-1.474 1.474-1.474.694 0 1.266.466 1.427 1.105h.749A2.213 2.213 0 003.316 0zm1.842 2.21a1.47 1.47 0 00-1.474 1.474h2.948a1.47 1.47 0 00-1.474-1.473zM4.053 4.422a.368.368 0 00-.369.368v.369a.368.368 0 10.737 0V4.79a.368.368 0 00-.368-.368zm2.21 0a.368.368 0 00-.368.368v.369a.368.368 0 10.737 0V4.79a.368.368 0 00-.369-.368zm-1.105 1.29a.368.368 0 00-.369.368v.368a.368.368 0 10.737 0V6.08a.368.368 0 00-.368-.368zM0 8.289a4.595 4.595 0 004.605 4.606h4.79A4.595 4.595 0 0014 8.289H0zm3.73 4.974c.143.636.641 1.105 1.244 1.105h4.052c.603 0 1.1-.469 1.244-1.105H3.73z" opacity=".7"/></svg><svg viewBox="0 0 16 14" id="heart" xmlns="http://www.w3.org/2000/svg"><path d="M8 14a.468.468 0 01-.309-.115c-.682-.594-1.33-1.145-1.94-1.662C2.307 9.3 0 7.37 0 4.558 0 1.96 1.845 0 4.25 0 6.146 0 7.362 1.318 8 2.506 8.638 1.318 9.854 0 11.75 0 14.155 0 16 1.96 16 4.558c0 2.813-2.307 4.743-5.75 7.665-.61.517-1.26 1.068-1.941 1.662A.468.468 0 018 14z"/></svg><svg viewBox="0 0 11 15" id="location" xmlns="http://www.w3.org/2000/svg"><path d="M10.467 3.16A5.362 5.362 0 005.927.016a5.796 5.796 0 00-.854 0A5.362 5.362 0 00.533 3.16a5.714 5.714 0 00.558 5.769l3.988 5.435a.523.523 0 00.843 0L9.91 8.93a5.714 5.714 0 00.557-5.769zM5.5 7.151a1.684 1.684 0 110-3.369 1.684 1.684 0 010 3.369z" opacity=".7"/></svg><svg viewBox="0 0 13 15" id="spoon" xmlns="http://www.w3.org/2000/svg"><g opacity=".7"><path d="M3.917 5.517l1.295 2.008.908-1.041-1.355-1.592c.58-.849.432-2.247-.431-3.393C3.322.145 1.7-.376.718.353c-.982.73-.952 2.426.06 3.78.878 1.16 2.172 1.696 3.14 1.384zm3.855 2.916L6.79 9.965l2.38 3.675c.343.536 1.072.67 1.592.283l.09-.074a1.113 1.113 0 00.178-1.607l-3.258-3.81z"/><path d="M12.92 1.603a.322.322 0 00-.505.015l-2.172 2.783a.23.23 0 01-.298.044c-.09-.074-.119-.193-.045-.297l2.039-2.872a.336.336 0 00-.015-.417.322.322 0 00-.506.015L9.246 3.657a.23.23 0 01-.298.044c-.09-.074-.119-.193-.045-.297.462-.64 2.054-2.887 2.054-2.887a.33.33 0 00-.134-.49.351.351 0 00-.402.103L8.13 3.077l-.298.386c-.297.402-.431.878-.372 1.295l.134.863-5.699 6.606a1.113 1.113 0 00.179 1.607l.09.075c.505.387 1.234.253 1.591-.283L8.457 6.29l.878-.119c.417-.06.833-.327 1.146-.729l.297-.387 2.158-3.035a.336.336 0 00-.015-.417z"/></g></svg></svg>